<svg width="41" height="40" viewBox="0 0 41 40" fill="none" xmlns="http://www.w3.org/2000/svg">
<path d="M19.832 0.0099996C9.74001 0.34 1.24801 8.502 0.550007 18.576C-0.187993 29.234 7.43401 38.24 17.512 39.754V25.3H14.284C12.832 25.3 11.656 24.124 11.656 22.672C11.656 21.22 12.832 20.044 14.284 20.044H17.51V16.546C17.51 10.754 20.332 8.212 25.146 8.212C25.86 8.212 26.47 8.228 26.988 8.254C28.26 8.316 29.246 9.376 29.246 10.65C29.246 11.976 28.172 13.05 26.846 13.05H25.962C23.918 13.05 23.204 14.988 23.204 17.172V20.046H26.944C28.126 20.046 29.03 21.1 28.85 22.268L28.634 23.67C28.488 24.61 27.68 25.304 26.728 25.304H23.204V39.798C32.97 38.472 40.5 30.124 40.5 20C40.5 8.732 31.182 -0.358 19.832 0.0099996Z" fill="#296668"/>
</svg>
