<svg width="39" height="40" viewBox="0 0 39 40" fill="none" xmlns="http://www.w3.org/2000/svg">
<path d="M11.4969 0.800003C5.32246 0.800003 0.299988 5.82713 0.299988 12.0031V28.0031C0.299988 34.1775 5.32711 39.2 11.5031 39.2H27.5031C33.6775 39.2 38.7 34.1729 38.7 27.9969V11.9969C38.7 5.82248 33.6729 0.800003 27.4969 0.800003H11.4969ZM30.7 7.2C31.5832 7.2 32.3 7.9168 32.3 8.8C32.3 9.6832 31.5832 10.4 30.7 10.4C29.8168 10.4 29.1 9.6832 29.1 8.8C29.1 7.9168 29.8168 7.2 30.7 7.2ZM19.5 10.4C24.7944 10.4 29.1 14.7056 29.1 20C29.1 25.2944 24.7944 29.6 19.5 29.6C14.2056 29.6 9.89999 25.2944 9.89999 20C9.89999 14.7056 14.2056 10.4 19.5 10.4ZM19.5 13.6C17.8026 13.6 16.1747 14.2743 14.9745 15.4745C13.7743 16.6748 13.1 18.3026 13.1 20C13.1 21.6974 13.7743 23.3253 14.9745 24.5255C16.1747 25.7257 17.8026 26.4 19.5 26.4C21.1974 26.4 22.8252 25.7257 24.0255 24.5255C25.2257 23.3253 25.9 21.6974 25.9 20C25.9 18.3026 25.2257 16.6748 24.0255 15.4745C22.8252 14.2743 21.1974 13.6 19.5 13.6V13.6Z" fill="#296668"/>
</svg>